<?xml version="1.0" encoding="UTF-8" standalone="no"?>
<!DOCTYPE svg PUBLIC "-//W3C//DTD SVG 1.1//EN" "http://www.w3.org/Graphics/SVG/1.1/DTD/svg11.dtd">
<?xml-stylesheet href="../css/animation.css" type="text/css"?>
<svg width="100%" height="100%" viewBox="0 0 1000 1000" version="1.1" xmlns="http://www.w3.org/2000/svg" xmlns:xlink="http://www.w3.org/1999/xlink" xml:space="preserve" xmlns:serif="http://www.serif.com/" style="fill-rule:evenodd;clip-rule:evenodd;stroke-linejoin:round;stroke-miterlimit:2;">
    <g id="Moon" class="moon">
        <g id="Crescent" transform="matrix(0.965344,0.260979,-0.260979,0.965344,150.926,-197.033)">
            <path d="M332.806,177.836C389.968,148.664 454.681,132.209 523.208,132.209C754.892,132.209 942.99,320.307 942.99,551.99C942.99,783.674 754.892,971.772 523.208,971.772C425.114,971.772 334.833,938.052 263.334,881.582C278.426,883.55 293.815,884.565 309.441,884.565C504.678,884.565 663.185,726.057 663.185,530.82C663.185,343.434 517.169,189.882 332.806,177.836Z" style="fill:rgb(255,252,164);"/>
        </g>
        <g id="Eye" transform="matrix(0.996498,-0.0836222,0.0836222,0.996498,-66.164,58.431)">
            <path d="M722.009,369.41C721.851,369.995 721.249,370.342 720.665,370.184C720.08,370.027 719.734,369.425 719.891,368.84C719.891,368.84 721.032,359.343 726.004,348.778C727.977,344.585 730.597,340.395 733.927,336.532C737.207,332.727 741.256,329.455 745.984,327.014C749.025,325.445 752.4,324.31 756.041,323.703C758.536,323.288 761.17,323.119 763.918,323.308C769.141,323.666 774.805,324.982 780.85,327.796C784.782,329.626 788.857,331.969 793.098,335.117C798.036,338.781 803.058,343.308 808.438,349C808.905,349.385 808.972,350.077 808.587,350.544C808.203,351.011 807.511,351.078 807.044,350.693C797.834,344.812 789.744,341.163 782.468,338.733C777.932,337.218 773.819,336.422 769.997,335.982C765.647,335.48 761.798,335.829 758.254,336.475C754.245,337.206 750.665,338.434 747.449,340.229C743.733,342.301 740.422,344.759 737.542,347.549C727.371,357.401 722.009,369.41 722.009,369.41Z" style="fill:rgb(139,139,139);"/>
        </g>
        <path id="Smile" d="M636.256,536.164C637.466,533.236 640.313,525.721 641.449,522.748C652.364,526.164 664.018,526.692 675.422,523.636C708.678,514.725 728.547,478.351 722.346,441.767C733.687,484.092 714.106,526.169 678.646,535.67C664.888,539.357 649.073,542.166 636.256,536.164Z" style="fill:rgb(139,139,139);"/>
    </g>
    <g id="Stars" class="stars">
        <g id="Star3" transform="matrix(0.864574,0.502505,-0.438719,0.754829,85.3201,-215.643)">
            <path d="M386.431,179.614L412.272,230.031C412.461,230.401 412.716,230.722 413.019,230.973C413.322,231.225 413.668,231.402 414.034,231.494L463.977,244.001L430.004,287.667C429.755,287.987 429.567,288.362 429.451,288.769C429.335,289.177 429.295,289.607 429.331,290.033L434.357,348.18L387.52,324.75C387.176,324.578 386.806,324.489 386.431,324.489C386.056,324.489 385.685,324.578 385.342,324.75L338.505,348.18L343.53,290.033C343.567,289.607 343.526,289.177 343.41,288.769C343.295,288.362 343.106,287.987 342.857,287.667L308.885,244.001L358.828,231.494C359.194,231.402 359.54,231.225 359.843,230.973C360.146,230.722 360.4,230.401 360.59,230.031L386.431,179.614Z" style="fill:rgb(255,252,164);"/>
        </g>
        <g id="Star2" transform="matrix(0.338276,-0.941047,0.821594,0.295336,107.823,682.796)">
            <path d="M386.431,179.614L412.272,230.031C412.461,230.401 412.716,230.722 413.019,230.973C413.322,231.225 413.668,231.402 414.034,231.494L463.977,244.001L430.004,287.667C429.755,287.987 429.567,288.362 429.451,288.769C429.335,289.177 429.295,289.607 429.331,290.033L434.357,348.18L387.52,324.75C387.176,324.578 386.806,324.489 386.431,324.489C386.056,324.489 385.685,324.578 385.342,324.75L338.505,348.18L343.53,290.033C343.567,289.607 343.526,289.177 343.41,288.769C343.295,288.362 343.106,287.987 342.857,287.667L308.885,244.001L358.828,231.494C359.194,231.402 359.54,231.225 359.843,230.973C360.146,230.722 360.4,230.401 360.59,230.031L386.431,179.614Z" style="fill:rgb(255,252,164);"/>
        </g>
        <g id="Star1" transform="matrix(-0.883007,-0.46936,0.409781,-0.770921,383.925,858.834)">
            <path d="M386.431,179.614L412.272,230.031C412.461,230.401 412.716,230.722 413.019,230.973C413.322,231.225 413.668,231.402 414.034,231.494L463.977,244.001L430.004,287.667C429.755,287.987 429.567,288.362 429.451,288.769C429.335,289.177 429.295,289.607 429.331,290.033L434.357,348.18L387.52,324.75C387.176,324.578 386.806,324.489 386.431,324.489C386.056,324.489 385.685,324.578 385.342,324.75L338.505,348.18L343.53,290.033C343.567,289.607 343.526,289.177 343.41,288.769C343.295,288.362 343.106,287.987 342.857,287.667L308.885,244.001L358.828,231.494C359.194,231.402 359.54,231.225 359.843,230.973C360.146,230.722 360.4,230.401 360.59,230.031L386.431,179.614Z" style="fill:rgb(255,252,164);"/>
        </g>
    </g>
</svg>
