<?xml version="1.0" encoding="UTF-8" standalone="no"?>
<!DOCTYPE svg PUBLIC "-//W3C//DTD SVG 1.1//EN" "http://www.w3.org/Graphics/SVG/1.1/DTD/svg11.dtd">
<?xml-stylesheet href="../css/animation.css" type="text/css"?>
<svg width="100%" height="100%" viewBox="0 0 1000 1080" version="1.1" xmlns="http://www.w3.org/2000/svg" xmlns:xlink="http://www.w3.org/1999/xlink" xml:space="preserve" xmlns:serif="http://www.serif.com/" style="fill-rule:evenodd;clip-rule:evenodd;stroke-linejoin:round;stroke-miterlimit:2;">
    <g id="Sun" transform="matrix(0.747602,0,0,0.747602,124.28,98.762)">
        <circle cx="502.566" cy="590.204" r="456.145" style="fill:rgb(255,229,102);"/>
    </g>
    <path id="Sun-Rays" serif:id="Sun Rays" d="M90.844,502.294C91.825,491.654 93.22,481.056 95.027,470.524L33.072,414.887L114.545,397.681C118.246,387.657 122.337,377.782 126.808,368.077L81.364,298.3L164.514,302.768C170.683,294.043 177.19,285.563 184.021,277.345L158.185,198.185L237.345,224.021C245.563,217.19 254.043,210.683 262.768,204.514L258.3,121.364L328.077,166.808C337.782,162.337 347.657,158.246 357.681,154.545L374.887,73.072L430.524,135.027C441.056,133.22 451.654,131.825 462.294,130.844L500,56.601L537.706,130.844C548.346,131.825 558.944,133.22 569.476,135.027L625.113,73.072L642.319,154.545C652.343,158.246 662.218,162.337 671.923,166.808L741.7,121.364L737.232,204.514C745.957,210.683 754.437,217.19 762.655,224.021L841.815,198.185L815.979,277.345C822.81,285.563 829.317,294.043 835.486,302.768L918.636,298.3L873.192,368.077C877.663,377.782 881.754,387.657 885.455,397.681L966.928,414.887L904.973,470.524C906.78,481.056 908.175,491.654 909.156,502.294L983.399,540L909.156,577.706C908.175,588.346 906.78,598.944 904.973,609.476L966.928,665.113L885.455,682.319C881.754,692.343 877.663,702.218 873.192,711.923L918.636,781.7L835.486,777.232C829.317,785.957 822.81,794.437 815.979,802.655L841.815,881.815L762.655,855.979C754.437,862.81 745.957,869.317 737.232,875.486L741.7,958.636L671.923,913.192C662.218,917.663 652.343,921.754 642.319,925.455L625.113,1006.93L569.476,944.973C558.944,946.78 548.346,948.175 537.706,949.156L500,1023.4L462.294,949.156C451.654,948.175 441.056,946.78 430.524,944.973L374.887,1006.93L357.681,925.455C347.657,921.754 337.782,917.663 328.077,913.192L258.3,958.636L262.768,875.486C254.043,869.317 245.563,862.81 237.345,855.979L158.185,881.815L184.021,802.655C177.19,794.437 170.683,785.957 164.514,777.232L81.364,781.7L126.808,711.923C122.337,702.218 118.246,692.343 114.545,682.319L33.072,665.113L95.027,609.476C93.22,598.944 91.825,588.346 90.844,577.706L16.601,540L90.844,502.294ZM119.406,602.415C129.798,665.405 155.715,724.605 194.101,774.724C232.577,824.774 283.053,865.13 341.207,891.471C359.975,899.93 379.668,906.989 400.192,912.489C416.671,916.904 433.188,920.18 449.661,922.366C466.138,924.518 482.94,925.629 500,925.629C521.248,925.629 542.097,923.906 562.415,920.594C625.405,910.202 684.605,884.285 734.724,845.899C784.774,807.423 825.13,756.947 851.471,698.793C859.93,680.025 866.989,660.332 872.489,639.808C876.904,623.329 880.18,606.812 882.366,590.339C884.518,573.862 885.629,557.06 885.629,540C885.629,518.752 883.906,497.903 880.594,477.585C870.202,414.595 844.285,355.395 805.899,305.276C767.423,255.226 716.947,214.87 658.793,188.529C640.025,180.07 620.332,173.011 599.808,167.511C583.329,163.096 566.812,159.82 550.339,157.634C533.862,155.482 517.06,154.371 500,154.371C478.752,154.371 457.903,156.094 437.585,159.406C374.595,169.798 315.395,195.715 265.276,234.101C215.226,272.577 174.87,323.053 148.529,381.207C140.07,399.975 133.011,419.668 127.511,440.192C123.096,456.671 119.82,473.188 117.634,489.661C115.482,506.138 114.371,522.94 114.371,540C114.371,561.248 116.094,582.097 119.406,602.415Z" style="fill:rgb(255,229,102);"/>
    <path id="Left-Eye" serif:id="Left Eye" d="M340.885,363.998C349.943,339.092 367.048,322.282 386.64,322.282C415.682,322.282 439.26,359.218 439.26,404.713C439.26,450.208 415.682,487.144 386.64,487.144C357.598,487.144 334.02,450.208 334.02,404.713C334.02,401.66 334.126,398.645 334.333,395.677L386.64,404.713L340.885,363.998Z" style="fill:rgb(73,73,73);"/>
    <g id="Right-Eye" serif:id="Right Eye" transform="matrix(1,0,0,1,225.687,0)">
        <path d="M340.885,363.998C349.943,339.092 367.048,322.282 386.64,322.282C415.682,322.282 439.26,359.218 439.26,404.713C439.26,450.208 415.682,487.144 386.64,487.144C357.598,487.144 334.02,450.208 334.02,404.713C334.02,401.66 334.126,398.645 334.333,395.677L386.64,404.713L340.885,363.998Z" style="fill:rgb(73,73,73);"/>
    </g>
    <g id="Mouth" transform="matrix(1,-4.19179e-17,4.19179e-17,-1.34229,40.9619,1525.6)">
        <path d="M559.707,734.13C559.707,685.417 514.636,645.926 459.038,645.926C403.44,645.926 358.369,685.417 358.369,734.13L559.707,734.13Z" style="fill:rgb(73,73,73);"/>
    </g>
</svg>
