<?xml version="1.0" encoding="UTF-8" standalone="no"?>
<!DOCTYPE svg PUBLIC "-//W3C//DTD SVG 1.1//EN" "http://www.w3.org/Graphics/SVG/1.1/DTD/svg11.dtd">
<svg width="100%" height="100%" viewBox="0 0 110 110" version="1.1" xmlns="http://www.w3.org/2000/svg" xmlns:xlink="http://www.w3.org/1999/xlink" xml:space="preserve" xmlns:serif="http://www.serif.com/" style="fill-rule:evenodd;clip-rule:evenodd;stroke-linejoin:round;stroke-miterlimit:2;">
    <g transform="matrix(1,0,0,1,-3469,0)">
        <g transform="matrix(1,0,0,1,-0.735091,0)">
            <rect id="Artboard1" x="3469.74" y="0" width="109.147" height="109.147" style="fill:none;"/>
            <clipPath id="_clip1">
                <rect id="Artboard11" serif:id="Artboard1" x="3469.74" y="0" width="109.147" height="109.147"/>
            </clipPath>
            <g clip-path="url(#_clip1)">
                <g transform="matrix(3.57812,0,0,-3.57812,-4236.78,851.433)">
                    <path d="M2157.33,232.68C2156.39,233.436 2154.72,233.494 2154.14,232.321C2153.56,231.131 2153.71,229.712 2154.52,228.666L2166.3,213.519C2166.96,212.673 2167.97,212.179 2169.04,212.179C2170.11,212.179 2171.12,212.673 2171.78,213.519L2183.56,228.666C2184.38,229.712 2184.53,231.131 2183.94,232.321C2183.37,233.494 2181.54,233.408 2180.6,232.652C2178.57,231.026 2171.78,220.921 2171.78,220.921C2171.12,220.075 2170.11,219.581 2169.04,219.581C2167.97,219.581 2166.96,220.075 2166.3,220.921C2166.3,220.921 2159.36,231.054 2157.33,232.68Z" style="fill:white;"/>
                </g>
            </g>
        </g>
    </g>
</svg>
